<?xml version="1.0" encoding="UTF-8"?>
<mxfile host="app.diagrams.net">
  <diagram name="BEP Override Flow" id="flow123">
    <mxGraphModel dx="1420" dy="740" grid="1" gridSize="10" guides="1" tooltips="1" connect="1" arrows="1" fold="1" page="1" pageScale="1" pageWidth="827" pageHeight="1169" math="0" shadow="0">
      <root>
        <mxCell id="0" />
        <mxCell id="1" parent="0" />

        <!-- Input -->
        <mxCell id="2" value="Input BEP (from ETE)&#xa;Env=EnvA&#xa;RAM=64GB&#xa;Tools=[Jira, Git, UFT, Skype]&#xa;Role=Abc&#xa;Service_ID=Zk1hrji" style="rounded=1;whiteSpace=wrap;html=1;fillColor=#dae8fc;strokeColor=#6c8ebf;" vertex="1" parent="1">
          <mxGeometry x="220" y="20" width="360" height="120" as="geometry" />
        </mxCell>

        <!-- Step 1 -->
        <mxCell id="3" value="1) Telemetry Collector&#xa;Detects &gt;90% RAM usage&#xa;QA load test in progress" style="rounded=1;whiteSpace=wrap;html=1;fillColor=#dae8fc;strokeColor=#6c8ebf;" vertex="1" parent="1">
          <mxGeometry x="220" y="160" width="360" height="80" as="geometry" />
        </mxCell>

        <!-- Step 2 -->
        <mxCell id="4" value="2) Context Analyzer&#xa;Evaluates telemetry vs policies&#xa;Predicts failure&#xa;→ Override needed" style="rounded=1;whiteSpace=wrap;html=1;fillColor=#dae8fc;strokeColor=#6c8ebf;" vertex="1" parent="1">
          <mxGeometry x="220" y="260" width="360" height="80" as="geometry" />
        </mxCell>

        <!-- Step 3 -->
        <mxCell id="5" value="3) Marker Synthesizer&#xa;Generate marker: { slot_ram:128GB, reason:'load_peak', target:Zk1hrji }" style="rounded=1;whiteSpace=wrap;html=1;fillColor=#fff2cc;strokeColor=#d6b656;" vertex="1" parent="1">
          <mxGeometry x="220" y="360" width="360" height="100" as="geometry" />
        </mxCell>

        <!-- Step 4 -->
        <mxCell id="6" value="4) Override Applier&#xa;Patch BEP: RAM 64GB → 128GB" style="rounded=1;whiteSpace=wrap;html=1;fillColor=#dae8fc;strokeColor=#6c8ebf;" vertex="1" parent="1">
          <mxGeometry x="220" y="480" width="360" height="80" as="geometry" />
        </mxCell>

        <!-- Step 5 -->
        <mxCell id="7" value="5) Conflict Resolver&#xa;Check constraints:&#xa;✔ Max RAM=128GB&#xa;✔ Licenses OK" style="rounded=1;whiteSpace=wrap;html=1;fillColor=#dae8fc;strokeColor=#6c8ebf;" vertex="1" parent="1">
          <mxGeometry x="220" y="580" width="360" height="100" as="geometry" />
        </mxCell>

        <!-- Step 6 -->
        <mxCell id="8" value="6) Executor (Binding Service)&#xa;Apply override via ARM Adapter:&#xa;- Resize VM RAM to 128GB&#xa;- Notify QA tester" style="rounded=1;whiteSpace=wrap;html=1;fillColor=#dae8fc;strokeColor=#6c8ebf;" vertex="1" parent="1">
          <mxGeometry x="220" y="700" width="360" height="100" as="geometry" />
        </mxCell>

        <!-- Output -->
        <mxCell id="9" value="Output: Updated BEP&#xa;Env=EnvA&#xa;RAM=128GB (Overridden)&#xa;Tools=[Jira, Git, UFT, Skype]&#xa;Role=Abc&#xa;Service_ID=Zk1hrji&#xa;Overrides tracked" style="rounded=1;whiteSpace=wrap;html=1;fillColor=#ffe6cc;strokeColor=#d79b00;" vertex="1" parent="1">
          <mxGeometry x="220" y="820" width="360" height="120" as="geometry" />
        </mxCell>

        <!-- Step 7 -->
        <mxCell id="10" value="7) Auditing Service&#xa;Log override marker:&#xa;reason=load_peak&#xa;service_id=Zk1hrji&#xa;timestamp=2025-09-15" style="rounded=1;whiteSpace=wrap;html=1;fillColor=#dae8fc;strokeColor=#6c8ebf;" vertex="1" parent="1">
          <mxGeometry x="640" y="360" width="300" height="140" as="geometry" />
        </mxCell>

        <!-- Connectors -->
        <mxCell id="11" edge="1" parent="1" source="2" target="3" style="endArrow=block;rounded=0;" />
        <mxCell id="12" edge="1" parent="1" source="3" target="4" style="endArrow=block;rounded=0;" />
        <mxCell id="13" edge="1" parent="1" source="4" target="5" style="endArrow=block;rounded=0;" />
        <mxCell id="14" edge="1" parent="1" source="5" target="6" style="endArrow=block;rounded=0;" />
        <mxCell id="15" edge="1" parent="1" source="6" target="7" style="endArrow=block;rounded=0;" />
        <mxCell id="16" edge="1" parent="1" source="7" target="8" style="endArrow=block;rounded=0;" />
        <mxCell id="17" edge="1" parent="1" source="8" target="9" style="endArrow=block;rounded=0;" />

        <!-- Side connector to Auditing Service -->
        <mxCell id="18" edge="1" parent="1" source="5" target="10" style="endArrow=block;dashed=1;" />
        <mxCell id="19" edge="1" parent="1" source="6" target="10" style="endArrow=block;dashed=1;" />
        <mxCell id="20" edge="1" parent="1" source="7" target="10" style="endArrow=block;dashed=1;" />
      </root>
    </mxGraphModel>
  </diagram>
</mxfile>